<svg width="388" height="59" viewBox="0 0 388 59" fill="none" xmlns="http://www.w3.org/2000/svg">
<path d="M41.9141 32.2188L38.5547 51.9062C37.0182 53.6771 35.1042 55.0703 32.8125 56.0859C30.5469 57.0755 28.1641 57.7656 25.6641 58.1562C23.1901 58.5729 20.8464 58.7812 18.6328 58.7812C15.1432 58.7812 12.1875 58.0651 9.76562 56.6328C7.36979 55.1745 5.46875 53.2474 4.0625 50.8516C2.68229 48.4297 1.78385 45.7474 1.36719 42.8047C0.950521 39.8359 0.989583 36.8281 1.48438 33.7812L3.08594 24.4844C3.63281 21.3854 4.58333 18.4036 5.9375 15.5391C7.31771 12.6484 9.04948 10.0703 11.1328 7.80469C13.2422 5.51302 15.6901 3.70312 18.4766 2.375C21.263 1.02083 24.349 0.34375 27.7344 0.34375C31.0417 0.34375 33.9714 0.981771 36.5234 2.25781C39.1016 3.53385 41.1068 5.38281 42.5391 7.80469C43.9714 10.2266 44.6484 13.1302 44.5703 16.5156H42.5C42.5 13.4948 41.888 10.9427 40.6641 8.85938C39.4661 6.77604 37.7604 5.1875 35.5469 4.09375C33.3333 3 30.7292 2.45312 27.7344 2.45312C24.6615 2.45312 21.862 3.0651 19.3359 4.28906C16.8099 5.51302 14.5833 7.16667 12.6562 9.25C10.7292 11.3333 9.14062 13.6901 7.89062 16.3203C6.64062 18.9245 5.75521 21.6198 5.23438 24.4062L3.59375 33.7812C3.125 36.5156 3.04688 39.237 3.35938 41.9453C3.67188 44.6536 4.41406 47.1146 5.58594 49.3281C6.78385 51.5417 8.45052 53.3125 10.5859 54.6406C12.7474 55.9688 15.4167 56.6458 18.5938 56.6719C20.599 56.6719 22.6953 56.5026 24.8828 56.1641C27.0703 55.7995 29.1667 55.2005 31.1719 54.3672C33.2031 53.5078 34.974 52.362 36.4844 50.9297L39.4141 34.3672H22.6172L22.8906 32.2188H41.9141ZM76.2516 50.0703L80.0016 28.2344C80.4182 25.8385 80.2229 23.8073 79.4156 22.1406C78.6344 20.474 77.3974 19.2109 75.7047 18.3516C74.012 17.4922 71.9938 17.0625 69.65 17.0625C67.4885 17.0625 65.3531 17.4661 63.2438 18.2734C61.1604 19.0547 59.3375 20.2135 57.775 21.75C56.2125 23.2604 55.1708 25.1224 54.65 27.3359L52.5406 27.2578C52.9313 25.3047 53.6734 23.5729 54.7672 22.0625C55.887 20.526 57.2411 19.237 58.8297 18.1953C60.4182 17.1536 62.137 16.3594 63.9859 15.8125C65.8609 15.2396 67.749 14.9531 69.65 14.9531C72.3583 14.9531 74.7281 15.487 76.7594 16.5547C78.7906 17.5964 80.288 19.1198 81.2516 21.125C82.2411 23.1042 82.5146 25.5 82.0719 28.3125L78.4391 49.4844C78.2047 50.8125 78.0224 52.1667 77.8922 53.5469C77.788 54.9271 77.8531 56.2943 78.0875 57.6484L78.0484 58H75.6656C75.5615 56.6719 75.5745 55.3438 75.7047 54.0156C75.8349 52.6875 76.0172 51.3724 76.2516 50.0703ZM79.8453 34.4062L79.65 36.5547H69.1031C67.2802 36.5807 65.3531 36.776 63.3219 37.1406C61.2906 37.4792 59.3375 38.0651 57.4625 38.8984C55.5875 39.7057 53.9729 40.8125 52.6188 42.2188C51.2906 43.599 50.4182 45.3438 50.0016 47.4531C49.663 49.3281 49.8714 50.9557 50.6266 52.3359C51.3818 53.7161 52.4885 54.7839 53.9469 55.5391C55.4052 56.2943 57.0068 56.6849 58.7516 56.7109C61.538 56.737 64.1161 56.2552 66.4859 55.2656C68.8818 54.25 71.0302 52.8568 72.9313 51.0859C74.8323 49.2891 76.4469 47.2057 77.775 44.8359L78.4391 46.8672C77.5016 48.6901 76.3427 50.3438 74.9625 51.8281C73.5823 53.3125 72.0328 54.5755 70.3141 55.6172C68.5953 56.6328 66.7594 57.4141 64.8063 57.9609C62.8792 58.5078 60.874 58.7812 58.7906 58.7812C56.551 58.7552 54.5458 58.2865 52.775 57.375C51.0042 56.4375 49.663 55.1094 48.7516 53.3906C47.8401 51.6719 47.5667 49.6406 47.9313 47.2969C48.3219 44.875 49.2333 42.8438 50.6656 41.2031C52.0979 39.5625 53.8297 38.2474 55.8609 37.2578C57.9182 36.2682 60.0927 35.5521 62.3844 35.1094C64.676 34.6667 66.8635 34.4323 68.9469 34.4062H79.8453ZM96.0188 24.7969L90.2766 58H88.1672L95.3938 15.7344H97.5422L96.0188 24.7969ZM94.3 33.2344L93.5188 30.9688C94.1438 28.9115 95.0292 26.9323 96.175 25.0312C97.3208 23.1302 98.688 21.4245 100.277 19.9141C101.865 18.4036 103.636 17.2057 105.589 16.3203C107.568 15.4349 109.704 14.9792 111.995 14.9531C114.313 14.9531 116.24 15.3307 117.777 16.0859C119.313 16.8411 120.498 17.9089 121.331 19.2891C122.191 20.6432 122.724 22.2318 122.933 24.0547C123.167 25.8516 123.115 27.7917 122.777 29.875L117.933 58H115.863L120.706 29.875C121.097 27.5052 121.097 25.3438 120.706 23.3906C120.342 21.4375 119.456 19.888 118.05 18.7422C116.644 17.5703 114.599 16.9974 111.917 17.0234C109.704 17.0495 107.646 17.5312 105.745 18.4688C103.87 19.4062 102.165 20.6562 100.628 22.2188C99.1177 23.7812 97.8286 25.513 96.7609 27.4141C95.6932 29.3151 94.8729 31.2552 94.3 33.2344ZM122.816 29.875L121.527 28.5078C122.204 26.5807 123.141 24.7969 124.339 23.1562C125.537 21.4896 126.93 20.0573 128.519 18.8594C130.133 17.6354 131.891 16.6849 133.792 16.0078C135.719 15.3307 137.724 14.9792 139.808 14.9531C142.204 14.9531 144.17 15.3698 145.706 16.2031C147.243 17.0365 148.415 18.1823 149.222 19.6406C150.029 21.099 150.524 22.7786 150.706 24.6797C150.889 26.5807 150.81 28.5729 150.472 30.6562L145.745 58H143.675L148.363 30.6562C148.753 28.2865 148.792 26.0599 148.48 23.9766C148.193 21.8672 147.36 20.1745 145.98 18.8984C144.626 17.5964 142.542 16.9714 139.73 17.0234C137.829 17.0755 135.993 17.4271 134.222 18.0781C132.451 18.7292 130.81 19.6406 129.3 20.8125C127.79 21.9583 126.474 23.3125 125.355 24.875C124.235 26.4115 123.389 28.0781 122.816 29.875ZM171.762 58.7812C168.924 58.7812 166.476 58.1693 164.419 56.9453C162.387 55.6953 160.747 54.0547 159.497 52.0234C158.273 49.9661 157.44 47.7005 156.997 45.2266C156.58 42.7526 156.541 40.2656 156.88 37.7656L157.153 36.0469C157.544 33.5208 158.299 31.0208 159.419 28.5469C160.539 26.0469 161.971 23.7812 163.716 21.75C165.46 19.6927 167.492 18.0521 169.809 16.8281C172.127 15.5781 174.692 14.9531 177.505 14.9531C180.031 14.9531 182.179 15.474 183.95 16.5156C185.721 17.5312 187.14 18.9115 188.208 20.6562C189.276 22.375 189.992 24.3021 190.356 26.4375C190.747 28.5729 190.786 30.7604 190.473 33L190.161 35.4609H158.598L158.872 33.3516H188.208L188.325 32.8438C188.768 30.3438 188.664 27.8828 188.012 25.4609C187.361 23.0391 186.164 21.0469 184.419 19.4844C182.674 17.8958 180.369 17.0885 177.505 17.0625C174.979 17.0625 172.674 17.6224 170.591 18.7422C168.533 19.8359 166.723 21.3203 165.161 23.1953C163.624 25.0443 162.348 27.0885 161.333 29.3281C160.343 31.5677 159.653 33.8073 159.262 36.0469L158.989 37.7656C158.651 39.9531 158.651 42.1536 158.989 44.3672C159.328 46.5807 160.018 48.625 161.059 50.5C162.101 52.349 163.507 53.8464 165.278 54.9922C167.049 56.112 169.197 56.6849 171.723 56.7109C174.354 56.737 176.749 56.2422 178.911 55.2266C181.072 54.1849 183.065 52.7526 184.887 50.9297L186.294 52.0234C185.044 53.4557 183.664 54.6797 182.153 55.6953C180.643 56.7109 179.015 57.4792 177.27 58C175.526 58.5208 173.69 58.7812 171.762 58.7812ZM205.592 1.08594H207.897L221.256 54.8359L253.327 1.16406H255.709L221.725 58H220.084L205.592 1.08594ZM204.967 1.125H207.077L201.998 30.5391L197.272 58H195.163L204.967 1.125ZM254.303 1.125H256.413L246.608 58H244.498L249.225 30.5391L254.303 1.125ZM286.18 50.0703L289.93 28.2344C290.346 25.8385 290.151 23.8073 289.344 22.1406C288.562 20.474 287.326 19.2109 285.633 18.3516C283.94 17.4922 281.922 17.0625 279.578 17.0625C277.417 17.0625 275.281 17.4661 273.172 18.2734C271.089 19.0547 269.266 20.2135 267.703 21.75C266.141 23.2604 265.099 25.1224 264.578 27.3359L262.469 27.2578C262.859 25.3047 263.602 23.5729 264.695 22.0625C265.815 20.526 267.169 19.237 268.758 18.1953C270.346 17.1536 272.065 16.3594 273.914 15.8125C275.789 15.2396 277.677 14.9531 279.578 14.9531C282.286 14.9531 284.656 15.487 286.688 16.5547C288.719 17.5964 290.216 19.1198 291.18 21.125C292.169 23.1042 292.443 25.5 292 28.3125L288.367 49.4844C288.133 50.8125 287.951 52.1667 287.82 53.5469C287.716 54.9271 287.781 56.2943 288.016 57.6484L287.977 58H285.594C285.49 56.6719 285.503 55.3438 285.633 54.0156C285.763 52.6875 285.945 51.3724 286.18 50.0703ZM289.773 34.4062L289.578 36.5547H279.031C277.208 36.5807 275.281 36.776 273.25 37.1406C271.219 37.4792 269.266 38.0651 267.391 38.8984C265.516 39.7057 263.901 40.8125 262.547 42.2188C261.219 43.599 260.346 45.3438 259.93 47.4531C259.591 49.3281 259.799 50.9557 260.555 52.3359C261.31 53.7161 262.417 54.7839 263.875 55.5391C265.333 56.2943 266.935 56.6849 268.68 56.7109C271.466 56.737 274.044 56.2552 276.414 55.2656C278.81 54.25 280.958 52.8568 282.859 51.0859C284.76 49.2891 286.375 47.2057 287.703 44.8359L288.367 46.8672C287.43 48.6901 286.271 50.3438 284.891 51.8281C283.51 53.3125 281.961 54.5755 280.242 55.6172C278.523 56.6328 276.688 57.4141 274.734 57.9609C272.807 58.5078 270.802 58.7812 268.719 58.7812C266.479 58.7552 264.474 58.2865 262.703 57.375C260.932 56.4375 259.591 55.1094 258.68 53.3906C257.768 51.6719 257.495 49.6406 257.859 47.2969C258.25 44.875 259.161 42.8438 260.594 41.2031C262.026 39.5625 263.758 38.2474 265.789 37.2578C267.846 36.2682 270.021 35.5521 272.312 35.1094C274.604 34.6667 276.792 34.4323 278.875 34.4062H289.773ZM306.337 24.7578L300.595 58H298.486L305.752 15.7344H307.861L306.337 24.7578ZM304.541 33.2344L303.759 30.9688C304.384 28.9115 305.27 26.9323 306.416 25.0312C307.587 23.1302 308.968 21.4245 310.556 19.9141C312.171 18.4036 313.968 17.2057 315.947 16.3203C317.926 15.4349 320.061 14.9792 322.353 14.9531C324.749 14.9531 326.702 15.3698 328.212 16.2031C329.749 17.0365 330.908 18.1953 331.689 19.6797C332.496 21.138 332.978 22.8177 333.134 24.7188C333.291 26.5938 333.212 28.5729 332.9 30.6562L328.173 58H326.064L330.791 30.6562C331.181 28.2865 331.233 26.0599 330.947 23.9766C330.66 21.8932 329.84 20.2135 328.486 18.9375C327.132 17.6354 325.061 16.9974 322.275 17.0234C320.061 17.0495 318.004 17.5312 316.103 18.4688C314.202 19.4062 312.483 20.6562 310.947 22.2188C309.41 23.7552 308.095 25.487 307.002 27.4141C305.908 29.3151 305.087 31.2552 304.541 33.2344ZM349.269 15.7344L342.003 58H339.894L347.159 15.7344H349.269ZM348.409 2.45312C348.487 1.93229 348.761 1.45052 349.23 1.00781C349.724 0.565104 350.245 0.34375 350.792 0.34375C351.391 0.34375 351.873 0.578125 352.237 1.04688C352.628 1.51562 352.771 2.03646 352.667 2.60938C352.589 3.13021 352.303 3.61198 351.808 4.05469C351.313 4.47135 350.792 4.67969 350.245 4.67969C349.672 4.67969 349.191 4.45833 348.8 4.01562C348.435 3.54688 348.305 3.02604 348.409 2.45312ZM380.911 50.0703L384.661 28.2344C385.078 25.8385 384.882 23.8073 384.075 22.1406C383.294 20.474 382.057 19.2109 380.364 18.3516C378.671 17.4922 376.653 17.0625 374.309 17.0625C372.148 17.0625 370.013 17.4661 367.903 18.2734C365.82 19.0547 363.997 20.2135 362.434 21.75C360.872 23.2604 359.83 25.1224 359.309 27.3359L357.2 27.2578C357.591 25.3047 358.333 23.5729 359.427 22.0625C360.546 20.526 361.901 19.237 363.489 18.1953C365.078 17.1536 366.796 16.3594 368.645 15.8125C370.52 15.2396 372.408 14.9531 374.309 14.9531C377.018 14.9531 379.388 15.487 381.419 16.5547C383.45 17.5964 384.947 19.1198 385.911 21.125C386.901 23.1042 387.174 25.5 386.731 28.3125L383.098 49.4844C382.864 50.8125 382.682 52.1667 382.552 53.5469C382.447 54.9271 382.513 56.2943 382.747 57.6484L382.708 58H380.325C380.221 56.6719 380.234 55.3438 380.364 54.0156C380.494 52.6875 380.677 51.3724 380.911 50.0703ZM384.505 34.4062L384.309 36.5547H373.763C371.94 36.5807 370.013 36.776 367.981 37.1406C365.95 37.4792 363.997 38.0651 362.122 38.8984C360.247 39.7057 358.632 40.8125 357.278 42.2188C355.95 43.599 355.078 45.3438 354.661 47.4531C354.322 49.3281 354.531 50.9557 355.286 52.3359C356.041 53.7161 357.148 54.7839 358.606 55.5391C360.065 56.2943 361.666 56.6849 363.411 56.7109C366.197 56.737 368.776 56.2552 371.145 55.2656C373.541 54.25 375.69 52.8568 377.591 51.0859C379.492 49.2891 381.106 47.2057 382.434 44.8359L383.098 46.8672C382.161 48.6901 381.002 50.3438 379.622 51.8281C378.242 53.3125 376.692 54.5755 374.973 55.6172C373.255 56.6328 371.419 57.4141 369.466 57.9609C367.539 58.5078 365.533 58.7812 363.45 58.7812C361.21 58.7552 359.205 58.2865 357.434 57.375C355.664 56.4375 354.322 55.1094 353.411 53.3906C352.499 51.6719 352.226 49.6406 352.591 47.2969C352.981 44.875 353.893 42.8438 355.325 41.2031C356.757 39.5625 358.489 38.2474 360.52 37.2578C362.578 36.2682 364.752 35.5521 367.044 35.1094C369.335 34.6667 371.523 34.4323 373.606 34.4062H384.505Z" fill="black"/>
</svg>
